<svg xmlns="http://www.w3.org/2000/svg" viewBox="0 0 1200 900" role="img" aria-labelledby="title"><title>People collaborating in a learning space</title><rect width="1200" height="900" fill="#16324f"/><circle cx="960" cy="180" r="190" fill="#f6bd60" opacity=".9"/><circle cx="220" cy="730" r="260" fill="#d8f3dc" opacity=".9"/><path d="M0 620c170-105 310-114 470-18 165 99 305 105 466 14 109-61 194-76 264-44v328H0Z" fill="#f7f4ea"/><rect x="176" y="210" width="510" height="340" rx="24" fill="#fff" opacity=".96"/><rect x="224" y="258" width="190" height="18" rx="9" fill="#16324f"/><rect x="224" y="302" width="380" height="13" rx="6" fill="#a7c4bc"/><rect x="224" y="340" width="310" height="13" rx="6" fill="#a7c4bc"/><circle cx="848" cy="500" r="70" fill="#e07a5f"/><path d="M738 760c11-144 58-211 110-211s99 67 110 211Z" fill="#16324f"/><circle cx="682" cy="530" r="55" fill="#f6bd60"/><path d="M590 760c12-120 48-176 92-176s80 56 92 176Z" fill="#2a9d8f"/><path d="M730 568l-100-94M845 560l-72-104" stroke="#16324f" stroke-width="18" stroke-linecap="round"/></svg>